<!-- Дом с сердцем и веткой — знак Дарьи. На 16 пикселях тонкая линия
     превращается в серую кашу, поэтому мазки здесь чуть толще, чем
     в шапке, а ветка короче: важен силуэт, а не подробности. -->
<svg xmlns="http://www.w3.org/2000/svg" viewBox="0 0 64 64">
  <rect width="64" height="64" rx="12" fill="#FAF6F0"/>
  <g fill="none" stroke="#B23A2B" stroke-width="5.5" stroke-linecap="round" stroke-linejoin="round">
    <path d="M31 20 Q30 16 31 12"/>
    <path d="M14 32 Q23 25 32 18 Q41 26 50 32"/>
    <path d="M15 32 Q13 44 14 55"/>
    <path d="M50 32 Q52 44 51 55"/>
    <path d="M10 58 Q32 55 54 58" stroke-width="6.5"/>
  </g>
  <path d="M30 12 Q23 6 14 5 Q19 12 28 14 Z" fill="#B23A2B"/>
  <path d="M32 54 C24 47 19 42 19 36 C19 31 23 28 27 29 C30 30 31 32 32 35
           C34 31 36 29 39 29 C43 29 47 33 46 38 C45 44 39 48 32 54 Z"
        fill="#B23A2B"/>
</svg>
